<svg width="85" height="79" viewBox="0 0 85 79" fill="none" xmlns="http://www.w3.org/2000/svg">
<path opacity="0.16" fill-rule="evenodd" clip-rule="evenodd" d="M84.9671 0.0172979C85.2176 2.69585 83.9829 5.51265 83.1777 7.95791C77.8097 23.3121 74.231 41.0251 69.9276 58.6949C68.7556 63.5162 67.4404 67.9661 67.1899 74.1441C59.7194 71.9407 54.083 67.9834 47.5071 64.8814C45.0647 66.4972 43.9821 69.3054 42.488 71.9321C41.1102 74.3514 40.2692 77.4534 37.9162 79C33.8902 75.8549 33.3087 69.4955 31.5193 63.9915C31.0004 62.393 29.9536 60.8636 29.2379 59.1355C28.5222 57.4074 28.3432 55.6102 27.4038 54.2882C24.0667 49.5187 17.5624 48.5596 11.8723 46.3476C9.83247 45.5527 8.01628 44.0752 5.94064 43.2543C3.865 42.4335 1.3599 42.5458 0 40.6103C11.1297 30.9675 27.0996 27.6496 41.1102 20.7372C48.1155 17.281 55.1208 14.1445 62.1261 11.0339C70.0081 7.57772 77.6576 4.86459 84.0545 0L84.9671 0.0172979ZM35.6259 63.0929C37.2631 61.4512 37.4689 58.4097 40.645 58.2455C41.5933 56.6038 39.9919 57.0877 40.1887 55.1522C40.6092 52.3182 42.5149 48.5768 41.9781 46.3303C39.1419 48.9225 40.5197 57.8567 36.4937 57.7962C36.9947 56.7853 38.1668 54.15 36.95 52.9489C36.449 56.5779 33.6934 58.0468 33.2908 61.7709C35.3038 61.9437 34.4896 59.3947 36.0374 59.1182C35.8406 60.0773 33.4339 62.73 35.5811 63.0929H35.6259ZM62.5734 12.7966C57.3575 15.19 51.7568 17.3069 46.5856 19.8559C31.5998 27.2348 15.7194 31.6415 3.64132 40.593C11.6934 44.2911 21.3558 46.4254 27.3949 52.0676C46.1183 38.115 63.5468 22.6129 79.4827 5.7373C79.4827 5.46944 79.4112 5.21022 79.0265 5.29662C73.5958 7.34442 68.3798 10.1353 62.5734 12.7966ZM41.5576 59.5675C47.8739 63.6199 55.6307 66.2812 62.5734 69.7115C66.3579 48.9743 74.0968 32.0044 78.5702 11.9152C79.0443 11.9152 78.928 11.345 78.1139 11.4746C66.5547 28.1075 52.2399 42.0792 41.5576 59.5675ZM68.514 19.4152C70.3034 17.7476 74.2489 15.838 73.9984 13.6779C71.9344 15.3667 70.0926 17.2935 68.514 19.4152ZM60.292 30.8811C60.2204 29.49 61.5088 29.4122 61.1867 27.7965C59.5942 27.6237 58.7174 30.6651 60.292 30.8811ZM56.1855 33.9744C56.1855 33.7066 56.2481 33.4474 56.6417 33.5338C56.588 32.998 56.4986 32.4883 55.7471 32.6697C55.8186 33.1881 55.6755 33.9226 56.2123 33.9917L56.1855 33.9744ZM51.1574 36.1777C52.3562 36.3074 52.6604 35.5729 52.5262 34.4496C51.3005 34.4496 50.3343 35.4606 51.1574 36.1777ZM53.8951 37.949C54.924 39.0291 58.0553 35.6593 55.6844 34.8558C55.1566 35.9617 53.8951 36.3333 53.8951 37.949ZM43.8479 41.0337C45.7263 40.1508 47.4285 38.9544 48.876 37.4997C46.6751 38.1737 45.3778 39.7203 43.8479 41.0337ZM47.9545 45.8896C50.7995 45.5181 51.6047 39.0637 50.7011 37.949C48.9833 39.8154 48.0171 42.3989 47.9545 45.8896ZM46.5856 45.0256C46.6303 43.9369 49.037 41.2756 47.0419 41.0596C47.4624 42.6667 45.0557 43.8073 46.5856 45.0256ZM41.1013 55.6188C44.17 54.6338 44.0447 50.1494 44.7605 46.7969C45.172 44.8787 46.693 42.563 45.2168 41.9409C42.7385 45.3971 42.3628 50.9443 41.1013 55.6188ZM31.9667 57.3469C32.754 53.8907 36.44 51.2295 35.6259 47.6437C36.7711 47.4968 39.7145 45.1379 37.9073 44.991C34.6686 47.5832 31.1346 52.2836 31.9667 57.3469ZM45.2168 49.847C46.6035 49.6914 46.5856 45.9069 46.1114 45.4317C45.3578 46.7822 45.0459 48.3217 45.2168 49.847ZM36.5384 52.0589C38.7751 51.7047 39.8666 47.9288 39.2761 46.3217C37.4242 47.324 36.5921 49.3372 36.5384 52.0589ZM30.1415 54.703C30.401 54.4351 31.2062 52.6119 30.1415 52.4996C29.8731 52.7675 29.0679 54.5906 30.1415 54.703ZM32.8792 59.9995C33.255 57.8481 35.9479 55.6102 34.6686 53.381C33.6039 54.8585 31.8593 57.995 32.8792 59.9995ZM41.1013 63.9656C41.2355 63.6977 42.2375 62.2375 41.1013 62.2375C41.5397 63.0583 39.7414 63.715 41.1013 63.9656ZM34.7044 67.9402C35.5275 66.5404 34.7044 62.9373 32.915 62.6435C32.3424 63.9915 33.2639 67.1625 34.7044 67.9402ZM40.645 70.1435C41.5396 67.5514 44.1163 66.7305 43.8479 63.0842C39.9561 63.257 40.0634 67.9661 40.645 70.1694V70.1435Z" fill="#F36821"/>
</svg>
