<svg width="83" height="53" viewBox="0 0 83 53" fill="none" xmlns="http://www.w3.org/2000/svg">
<path opacity="0.2" fill-rule="evenodd" clip-rule="evenodd" d="M36.3794 0.00643742C37.4533 -0.109887 36.8884 1.38211 37.3414 1.9081C41.6471 4.60886 45.2658 7.97723 49.4749 10.7943C52.1927 10.9764 54.4932 10.0913 57.1347 10.1621C59.308 10.2177 61.6696 11.032 63.8428 10.7943C66.6421 10.4909 69.1207 8.63471 71.8233 8.26551C74.7955 7.94663 77.7935 7.94663 80.7657 8.26551C81.5851 8.35655 82.6386 8.36666 83 9.21634C82.9338 11.1635 79.2795 9.54003 78.2107 10.4858C78.5975 11.7957 81.5138 10.592 81.407 12.3925C80.5774 13.4749 78.058 12.8983 76.3174 13.0247C76.7042 15.4928 81.6411 13.4495 81.407 16.5145C79.7223 17.7333 76.6431 15.7862 74.3782 15.5636C75.218 17.2124 79.5849 16.8786 78.8469 19.0534C73.7573 19.1242 68.8459 16.3172 65.4359 13.662C61.7408 13.581 58.7634 14.2183 54.9004 13.9755C55.9183 16.1402 58.3613 17.5159 60.331 18.7398C62.3007 19.9638 64.6673 21.0562 66.7184 22.2295C66.9678 23.5647 67.4666 25.2641 67.034 26.3515C63.3593 27.1455 60.728 28.9663 57.4554 30.1599C56.9464 33.7002 57.0075 37.7463 56.4985 41.2866C51.1697 44.8674 43.8815 46.4909 38.9547 50.4611C36.7968 50.4257 35.901 51.6446 34.4861 52.3627C32.4859 52.0036 32.3128 52.2919 30.9743 53C21.7316 48.8578 15.1966 42.0048 8.30018 35.5462C8.86513 32.8252 7.66908 28.4049 8.62083 25.3905C5.96407 23.2714 3.53124 20.9348 0.319717 19.3619C-0.367377 18.0722 0.202654 16.6359 0.635269 15.5535C3.83153 14.8354 6.74277 13.1309 9.57767 11.7451C15.0897 9.05956 20.4694 6.50547 26.5005 3.81483C29.7375 2.36835 32.608 0.957266 36.3998 0.00643742H36.3794ZM49.4749 37.7665C51.4293 37.3417 49.1339 36.3099 50.4318 35.2377C48.8234 35.44 49.7701 36.5325 48.1924 35.5563C47.49 36.2998 46.5586 37.1697 45.3218 36.5072C45.1437 37.0736 45.159 37.8221 44.6805 38.0952C44.4108 36.7853 43.4285 39.1068 42.1357 38.0952C42.039 38.5251 41.6828 38.7021 41.8202 39.3596C40.6801 39.2737 39.8352 39.8654 38.9446 40.9477C38.5323 39.8351 37.4177 42.4195 37.6671 40.3155C35.8908 40.5128 37.4024 42.0098 36.7103 43.168C38.1201 42.9859 39.255 41.9137 39.255 41.2664C39.3212 41.6254 39.6113 41.7721 39.8912 41.9036C40.2119 41.4788 40.1966 40.7201 40.8531 40.6342V41.585C41.8354 41.3625 41.4639 41.3625 42.4462 41.585C42.7312 39.8553 43.4641 38.5504 45.3218 38.4088C44.7162 39.9261 45.6323 41.3979 44.6805 42.8545C45.6984 42.9354 46.2074 42.4751 46.2787 41.585C44.9045 41.15 47.149 39.2686 45.958 38.0952C46.9759 37.9486 47.0828 36.8865 48.1924 36.8258C48.3247 37.5895 47.6121 37.5136 47.8768 38.4088C49.9126 38.4695 47.4645 36.0419 49.7905 36.5072C49.8617 37.109 49.4291 37.2101 49.4749 37.7766V37.7665ZM35.4226 3.17756C25.0144 8.06826 13.2371 11.5985 4.12672 17.7738C10.8144 23.1096 18.2147 28.0964 24.882 33.0073C27.2436 34.742 30.0174 35.8244 31.9107 38.0649C39.4518 33.8042 47.2426 29.9958 55.2414 26.66C57.9796 25.5018 61.181 25.0466 63.2219 22.8516C61.5118 21.3344 59.1808 19.8171 56.8396 18.0924C54.8852 16.6611 52.1012 13.839 50.1315 13.6519C46.014 13.2574 44.024 17.7789 39.9116 18.7095C39.6571 20.2925 41.0313 20.2621 40.2322 21.5619C37.494 24.2981 29.936 20.5201 34.8017 17.44C35.7789 17.349 36.0435 18.4515 36.7204 17.7536C39.8251 15.3411 43.5456 13.5406 47.5765 12.0436C44.1614 8.45771 39.8251 5.7873 35.4429 3.15734L35.4226 3.17756ZM70.5407 9.84348C72.1648 9.92981 73.7909 9.71368 75.3351 9.20621C73.7268 8.65494 72.093 9.01909 70.5407 9.84348ZM54.254 12.0638C55.0429 12.1143 55.5773 11.8969 55.8471 11.4316C55.2465 11.5681 53.9232 11.0017 54.254 12.0638ZM71.1769 12.3824C73.3603 12.6049 76.3326 12.9539 77.8799 11.7451C76.0883 11.3355 72.1134 10.946 71.1769 12.3824ZM64.1533 12.3824C63.9223 12.2249 63.6616 12.1155 63.387 12.0607C63.1123 12.006 62.8294 12.007 62.5551 12.0638C62.0462 13.0247 64.2093 12.8983 64.1533 12.3824ZM77.2437 14.9112C75.0297 14.3599 73.5741 13.0551 70.5356 13.3231C71.7927 14.6179 75.3707 15.2804 77.2437 14.9112ZM37.036 21.2585C37.8808 21.2585 38.914 21.4355 38.9496 20.6212C38.7003 20.5504 38.5781 20.3582 38.629 19.989C37.6976 19.989 36.8324 20.1003 37.036 21.2585ZM58.7481 27.6007C58.9986 27.6194 59.2496 27.5706 59.4744 27.4593C59.6993 27.348 59.8897 27.1785 60.0256 26.9685C59.2978 26.8775 58.8245 27.0444 58.7481 27.6007ZM10.5294 34.5853C13.8173 37.7817 17.1153 41.408 20.4286 44.1037C23.742 46.7994 27.4472 48.3066 30.9692 50.7645C32.0889 48.2357 31.2288 45.2012 31.2847 41.8834C23.8692 37.8373 18.1281 32.1121 11.1707 27.6007C10.2546 29.2293 10.5854 32.0969 10.5294 34.5853ZM53.002 30.1396C54.9408 29.6062 56.7751 28.7512 58.4275 27.6108C56.295 28.1166 53.9334 28.4352 53.002 30.1396ZM47.2508 32.6684C48.2076 32.2132 48.3399 32.9264 49.1695 32.3498V31.399C48.7645 31.42 48.3726 31.5489 48.035 31.7723C47.6974 31.9957 47.4265 32.3052 47.2508 32.6684ZM53.002 35.526C53.002 34.9595 53.857 33.68 53.002 33.3057C52.7017 33.5737 52.3149 35.3287 53.002 35.526ZM51.4039 34.8887C51.4039 34.8887 51.4039 35.2023 51.4039 35.2074C49.704 36.2189 52.4727 35.0657 51.4039 34.8887ZM46.5891 38.0851C46.64 38.4594 46.5331 38.9854 46.9098 39.036C46.8589 38.6162 47.9837 37.8525 47.2253 37.7665C47.1592 38.0143 46.9607 38.1357 46.5891 38.0851ZM37.3414 39.6884C37.9776 39.4102 37.4228 38.0801 37.0207 39.0562C37.2141 39.0562 37.3973 39.1017 37.3414 39.3698C37.1632 39.3698 36.9749 39.6277 37.3414 39.6884ZM49.1339 39.6884C49.0423 40.4167 49.2103 40.882 49.7701 40.9579C50.1264 40.4521 50.788 40.3004 50.727 39.3698C50.4534 39.3152 50.1717 39.3152 49.8982 39.3699C49.6247 39.4246 49.3649 39.5329 49.1339 39.6884ZM33.8041 43.8154C35.0052 43.2489 33.5852 42.0503 34.4454 41.2866C34.9543 41.2866 34.6235 42.1666 35.0816 42.2374V40.0171C33.0457 39.5114 33.1933 42.7836 33.8041 43.8255V43.8154ZM47.8564 41.2866C47.9453 41.3244 48.0414 41.3426 48.1381 41.3399C48.2347 41.3371 48.3296 41.3135 48.4161 41.2707C48.5027 41.2279 48.5788 41.1669 48.6393 41.0919C48.6998 41.0169 48.7431 40.9297 48.7663 40.8365C48.7895 40.7432 48.7919 40.646 48.7736 40.5517C48.7552 40.4573 48.7164 40.3681 48.6599 40.2902C48.6033 40.2122 48.5304 40.1475 48.4462 40.1003C48.3619 40.0532 48.2684 40.0248 48.172 40.0171C48.0753 40.447 47.719 40.624 47.8564 41.2866ZM46.5789 41.2866H47.5358V40.6544H46.5891V41.2866H46.5789ZM41.7896 42.556C41.9989 42.582 42.2106 42.5324 42.3861 42.4164C42.5617 42.3004 42.6896 42.1256 42.7465 41.9238C42.2375 41.9542 41.637 41.8834 41.7896 42.556ZM41.7896 44.1441C43.4438 44.5336 42.6956 43.0315 43.0671 42.8747C43.515 42.8747 43.4285 43.7952 43.7033 43.1882C43.4489 42.0149 41.4283 42.8089 41.7896 44.1441ZM39.8709 45.4136C39.8709 44.4527 41.4792 45.1051 41.469 44.1441C41.0466 44.1441 41.1789 43.5878 40.8328 43.5069C41.0415 44.488 38.6494 44.483 39.8709 45.4136ZM45.9376 45.4136C46.9512 45.2072 47.8552 44.6431 48.4824 43.8255C47.1744 43.8963 46.5077 44.6094 45.9376 45.4136ZM33.8041 46.3644C34.0637 46.1368 34.6591 44.1694 33.4885 44.4577C33.7888 45.5501 32.6844 46.066 33.8244 46.3341L33.8041 46.3644Z" fill="#A37141"/>
</svg>
