<svg width="20" height="26" viewBox="0 0 20 26" fill="none" xmlns="http://www.w3.org/2000/svg">
<path d="M15.9711 12.3873C17.3393 11.1981 18.1691 9.53975 18.1691 7.4515C18.1691 3.09332 14.6015 0.24707 10.2067 0.24707H0.341797V25.4687H10.9322C15.4354 25.4687 19.0682 22.5506 19.0682 18.0839C19.0736 15.5211 17.8478 13.5752 15.9711 12.3873ZM6.1048 5.65073H10.2108C11.5437 5.65073 12.4088 6.58638 12.4088 7.88407C12.4088 9.18176 11.5085 10.1174 10.2108 10.1174H6.1048V5.65073ZM10.9322 20.0596H6.1048V15.2322H10.9322C12.3722 15.2322 13.3092 16.2411 13.3092 17.6459C13.3092 19.0507 12.3722 20.0596 10.9322 20.0596Z" fill="#194792"/>
</svg>
