<svg width="188" height="32" viewBox="0 0 188 32" fill="none" xmlns="http://www.w3.org/2000/svg">
<path d="M106.12 0L97.5464 25.2135H103.849L105.11 21.2512H114.475L115.736 25.2135H122.04L113.47 0H106.12ZM106.842 15.8489L109.792 6.59288L112.75 15.8489H106.842Z" fill="#194792"/>
<path d="M30.8963 0L22.3223 25.2135H28.625L29.886 21.2512H39.2506L40.5117 25.2135H46.8157L38.2458 0H30.8963ZM31.6177 15.8489L34.5683 6.59288L37.5257 15.8489H31.6177Z" fill="#194792"/>
<path d="M164.111 0H158.489V14.516C158.489 16.1879 157.612 17.609 154.625 17.609C151.637 17.609 150.759 16.1879 150.759 14.516V0H145.137V14.958C145.137 19.6905 149.213 22.5313 154.629 22.5313C160.045 22.5313 164.121 19.6905 164.121 14.958L164.111 0Z" fill="#194792"/>
<path d="M181.589 0V15.8856C181.589 17.7148 180.627 19.2688 177.359 19.2688C174.091 19.2688 173.129 17.7148 173.129 15.8856V0H166.977V16.3683C166.977 21.5482 171.438 24.6562 177.359 24.6562C183.281 24.6562 187.741 21.5482 187.741 16.3683V0H181.589Z" fill="#194792"/>
<path d="M143.712 22.972C141.87 21.136 140.754 19.0654 140.124 17.6145C140.114 17.5955 140.105 17.5755 140.099 17.5548C139.849 16.9721 139.636 16.3738 139.463 15.7635C139.421 15.6095 139.396 15.4513 139.389 15.2917L139.459 15.2442C141.575 13.7173 142.931 11.286 142.931 8.64996C142.934 7.51344 142.713 6.38739 142.28 5.33659C141.847 4.28579 141.211 3.33098 140.407 2.52708C139.604 1.72318 138.65 1.08606 137.599 0.652372C136.549 0.218684 135.423 -0.00301411 134.286 3.09472e-05H124.2V25.2135H129.963V16.9297H132.701H133.121C133.227 17.2457 133.302 17.4952 133.393 17.7433L133.637 18.443C133.683 18.5637 133.732 18.683 133.772 18.8037C134.797 21.4004 136.053 23.5063 137.454 25.2122C145.713 35.2927 160.983 30.5833 160.983 30.5833L159.25 25.878C151.545 27.7696 146.683 25.9336 143.712 22.972ZM129.963 11.8867V5.40234H134.286C135.871 5.40234 137.168 6.80851 137.168 8.64454C137.168 10.4806 135.871 11.8867 134.286 11.8867H129.963Z" fill="#194792"/>
<path d="M10.0859 0.24707H0V25.4687H10.0859C17.0382 25.4687 22.3333 19.9932 22.3333 12.8579C22.3333 5.7226 17.0382 0.24707 10.0859 0.24707ZM10.0859 19.9159H5.763V5.79447H10.0859C14.0482 5.79447 16.7859 8.53224 16.7859 12.8552C16.7859 17.1781 14.0482 19.9159 10.0859 19.9159Z" fill="#194792"/>
<path d="M61.4133 11.4504L54.5695 0.24707H48.8052V25.4633H54.5695V10.8022L61.0892 21.4997H61.7374L68.2584 10.8022V25.4633H74.0214V0.24707H68.2584L61.4133 11.4504Z" fill="#194792"/>
<path d="M93.9711 12.3873C95.3393 11.1981 96.1691 9.53975 96.1691 7.4515C96.1691 3.09332 92.6015 0.24707 88.2067 0.24707H78.3418V25.4687H88.9322C93.4354 25.4687 97.0682 22.5506 97.0682 18.0839C97.0736 15.5211 95.8478 13.5752 93.9711 12.3873ZM84.1048 5.65073H88.2108C89.5437 5.65073 90.4088 6.58638 90.4088 7.88407C90.4088 9.18176 89.5085 10.1174 88.2108 10.1174H84.1048V5.65073ZM88.9322 20.0596H84.1048V15.2322H88.9322C90.3722 15.2322 91.3092 16.2411 91.3092 17.6459C91.3092 19.0507 90.3722 20.0596 88.9322 20.0596Z" fill="#194792"/>
<path d="M164.111 24.6562C163.655 24.6562 163.21 24.7914 162.831 25.0447C162.452 25.298 162.156 25.6581 161.982 26.0793C161.807 26.5005 161.762 26.964 161.85 27.4112C161.939 27.8583 162.159 28.2691 162.481 28.5915C162.804 28.9139 163.214 29.1334 163.662 29.2224C164.109 29.3113 164.572 29.2657 164.994 29.0912C165.415 28.9167 165.775 28.6212 166.028 28.2422C166.281 27.8631 166.417 27.4174 166.417 26.9615C166.412 26.3514 166.168 25.7675 165.737 25.3361C165.305 24.9047 164.721 24.6605 164.111 24.6562Z" fill="#FFCC24"/>
</svg>
