<svg width="37" height="32" viewBox="0 0 37 32" fill="none" xmlns="http://www.w3.org/2000/svg">
<path d="M19.7117 22.972C17.8702 21.136 16.7543 19.0654 16.1237 17.6145C16.1136 17.5955 16.1054 17.5755 16.0993 17.5548C15.8488 16.9721 15.6364 16.3738 15.4633 15.7635C15.4208 15.6095 15.3958 15.4513 15.3888 15.2917L15.4593 15.2442C17.5746 13.7173 18.9306 11.286 18.9306 8.64996C18.9344 7.51344 18.7134 6.38739 18.2804 5.33659C17.8473 4.28579 17.2108 3.33098 16.4074 2.52708C15.604 1.72318 14.6496 1.08606 13.5991 0.652372C12.5486 0.218684 11.4227 -0.00301411 10.2861 3.09472e-05H0.200195V25.2135H5.9632V16.9297H8.70097H9.12132C9.22709 17.2457 9.30167 17.4952 9.39252 17.7433L9.63661 18.443C9.68271 18.5637 9.73153 18.683 9.77221 18.8037C10.7973 21.4004 12.053 23.5063 13.4537 25.2122C21.7132 35.2927 36.9831 30.5833 36.9831 30.5833L35.2501 25.878C27.5453 27.7696 22.6827 25.9336 19.7117 22.972ZM5.9632 11.8867V5.40234H10.2861C11.8713 5.40234 13.1676 6.80851 13.1676 8.64454C13.1676 10.4806 11.8713 11.8867 10.2861 11.8867H5.9632Z" fill="#194792"/>
</svg>
