<svg width="37" height="47" viewBox="0 0 37 47" fill="none" xmlns="http://www.w3.org/2000/svg">
<path d="M28.305 0H8.695C2.3125 0 0 2.35 0 8.9535V38.0465C0 44.65 2.3125 47 8.695 47H28.2819C34.6875 47 37 44.65 37 38.0465V8.9535C37 2.35 34.6875 0 28.305 0ZM18.5 40.655C16.28 40.655 14.4531 38.7985 14.4531 36.5425C14.4531 34.2865 16.28 32.43 18.5 32.43C20.72 32.43 22.5469 34.2865 22.5469 36.5425C22.5469 38.7985 20.72 40.655 18.5 40.655ZM23.125 9.9875H13.875C12.9269 9.9875 12.1406 9.1885 12.1406 8.225C12.1406 7.2615 12.9269 6.4625 13.875 6.4625H23.125C24.0731 6.4625 24.8594 7.2615 24.8594 8.225C24.8594 9.1885 24.0731 9.9875 23.125 9.9875Z" fill="#F05568"/>
</svg>
